# xmcd
#
# Track frame offsets:
# 150
# 14594
# 25738
# 41157
# 57217
# 73802
# 88955
# 102909
# 122660
# 136383
#
# Disc length: 2065 seconds
#
#
# Revision: 0
# Processed by: cddbd v1.5.1PL2 Copyright (c) Steve Scherf et al.
# Submitted via: FreeRIP 2.943 
#
DISCID=8d080f0a
DTITLE=Collin Raye - All I Can Be - All I Can Be
DYEAR=1990
DGENRE=Country
TTITLE0=All I Can Be
TTITLE1=Every Second
TTITLE2=Faithfull Old Flame
TTITLE3='Scuse Moi, My Heart
TTITLE4=Any Old Stretch of Blacktop
TTITLE5=Love Me
TTITLE6=Blue Magic
TTITLE7=It Could've Been So Good
TTITLE8=Sadly Ever After
TTITLE9=If I Were You
EXTD=
EXTT0=
EXTT1=
EXTT2=
EXTT3=
EXTT4=
EXTT5=
EXTT6=
EXTT7=
EXTT8=
EXTT9=
PLAYORDER=
